# xmcd CD database file
#
# Track frame offsets:
#	150
#	25310
#	46457
#	71565
#
# Disc length: 1234 seconds
#
# Revision: 0
# Processed by: cddbd v1.5.1PL0 Copyright (c) Steve Scherf et al.
# Submitted via: CDex 1.51
#
DISCID=3104d004
DTITLE=Lindberg - 想い出のWater Moon
DYEAR=1993
DGENRE=JPop
TTITLE0=想い出のWater Moon
TTITLE1=君に吹く風
TTITLE2=想い出のWater Moon(カラオケ)
TTITLE3=君に吹く風(カラオケ)
EXTD=YEAR: 1993
EXTT0=
EXTT1=
EXTT2=
EXTT3=
PLAYORDER=
